# xmcd
#
# Track frame offsets: 
#        150
#        19720
#        33473
#        53891
#        66204
#        89885
#        109714
#        122303
#        140445
#
# Disc length: 2374 seconds
#
# Revision: 5
# Processed by: cddbd v1.5.2PL0 Copyright (c) Steve Scherf et al.
# Submitted via: ExactAudioCopy v1.3
#
DISCID=78094409
DTITLE=Breakout - Karate
DYEAR=1972
DGENRE=Blues
TTITLE0=Daje Ci prog
TTITLE1=Takie moje miasto jest
TTITLE2=Noca, puka ktos
TTITLE3=Powiedzmy to
TTITLE4=Rzeka dziecinstwa
TTITLE5=Jest gdzies taki dom
TTITLE6=Sliska dzisiaj droga
TTITLE7=Zaprowadzic Ciebie musze tam
TTITLE8=Karate
EXTD=
EXTT0=
EXTT1=
EXTT2=
EXTT3=
EXTT4=
EXTT5=
EXTT6=
EXTT7=
EXTT8=
PLAYORDER=
